<svg xmlns="http://www.w3.org/2000/svg" xml:space="preserve" width="404.891" height="142.52" viewBox="0 0 404.891 142.52"><path fill="#858e8e" d="M119.434 139.629V3.465H83.25v37.156c0 11.086.199 29.18 1.172 35.207-2.922-5.645-14.98-23.73-21.203-32.094L33.266 3.465H0v136.164h36.184V98.004c0-11.09-.195-29.18-1.168-35.211 3.5 6.031 15.168 23.539 21.199 31.906l32.484 44.93zM404.891 97.809c0-25.48-15.172-35.984-49.406-44.156-17.508-4.086-22.359-6.418-22.359-11.48 0-4.863 2.719-8.363 14-8.363 13.805 0 25.859 4.672 37.93 12.84l18.289-29.566C388.938 6.965 372.211 1.328 349.07 1.328c-32.883 0-53.691 17.312-53.691 42.984 0 27.234 15.762 36.184 48.629 43.766 18.281 4.285 23.148 7.395 23.148 12.449 0 6.422-4.281 8.758-17.703 8.758-12.641 0-29.953-6.812-39.875-13.609l-18.281 29.555c14.199 9.336 35.406 16.539 57.375 16.539 32.687 0 56.219-12.844 56.219-43.961"/><path fill="#ee3224" fill-rule="evenodd" d="M174.758 71.258c0-19.305 15.648-34.957 34.953-34.957 19.309 0 34.961 15.652 34.961 34.957 0 19.309-15.652 34.957-34.961 34.957-19.305 0-34.953-15.649-34.953-34.957m-36.305 0C138.453 31.902 170.355 0 209.711 0s71.262 31.902 71.262 71.258-31.906 71.262-71.262 71.262-71.258-31.907-71.258-71.262" clip-rule="evenodd"/></svg>